HIERARCHY
ROOT Hips
{
  OFFSET -7.4838 96.1112 52.0518
  CHANNELS 6 Xposition Yposition Zposition Zrotation Xrotation Yrotation
  JOINT Chest
  {
    OFFSET 0 10.5691 -1.07959
    CHANNELS 6 Xposition Yposition Zposition Zrotation Xrotation Yrotation
    JOINT Chest2
    {
      OFFSET 0 11.6675 1.08235
      CHANNELS 6 Xposition Yposition Zposition Zrotation Xrotation Yrotation
      JOINT Chest3
      {
        OFFSET 0 10.5876 0
        CHANNELS 6 Xposition Yposition Zposition Zrotation Xrotation Yrotation
        JOINT Chest4
        {
          OFFSET 0 10.5876 0
          CHANNELS 6 Xposition Yposition Zposition Zrotation Xrotation Yrotation
          JOINT Neck
          {
            OFFSET 0 14.88 0
            CHANNELS 6 Xposition Yposition Zposition Zrotation Xrotation Yrotation
            JOINT Head
            {
              OFFSET 0 9.61471 2.16553
              CHANNELS 6 Xposition Yposition Zposition Zrotation Xrotation Yrotation
              End Site
              {
                OFFSET 0 0 0
              }
            }
          }
          JOINT RightCollar
          {
            OFFSET -3.23953 8.30385 0
            CHANNELS 6 Xposition Yposition Zposition Zrotation Xrotation Yrotation
            JOINT RightShoulder
            {
              OFFSET -15.1725 0 0
              CHANNELS 6 Xposition Yposition Zposition Zrotation Xrotation Yrotation
              JOINT RightElbow
              {
                OFFSET -32.4113 0 0
                CHANNELS 6 Xposition Yposition Zposition Zrotation Xrotation Yrotation
                JOINT RightWrist
                {
                  OFFSET -26.4919 0 1.0813
                  CHANNELS 6 Xposition Yposition Zposition Zrotation Xrotation Yrotation
                  End Site
                  {
                    OFFSET 0 0 0
                  }
                }
              }
            }
          }
          JOINT LeftCollar
          {
            OFFSET 3.23953 8.30385 0
            CHANNELS 6 Xposition Yposition Zposition Zrotation Xrotation Yrotation
            JOINT LeftShoulder
            {
              OFFSET 15.1725 0 0
              CHANNELS 6 Xposition Yposition Zposition Zrotation Xrotation Yrotation
              JOINT LeftElbow
              {
                OFFSET 32.4113 0 0
                CHANNELS 6 Xposition Yposition Zposition Zrotation Xrotation Yrotation
                JOINT LeftWrist
                {
                  OFFSET 26.4919 0 1.0813
                  CHANNELS 6 Xposition Yposition Zposition Zrotation Xrotation Yrotation
                  End Site
                  {
                    OFFSET 0 0 0
                  }
                }
              }
            }
          }
        }
      }
    }
  }
  JOINT RightHip
  {
    OFFSET -8.63673 0.00547028 0
    CHANNELS 6 Xposition Yposition Zposition Zrotation Xrotation Yrotation
    JOINT RightKnee
    {
      OFFSET 0 -44.4933 -2.13962
      CHANNELS 6 Xposition Yposition Zposition Zrotation Xrotation Yrotation
      JOINT RightAnkle
      {
        OFFSET 0 -43.4407 -3.54051
        CHANNELS 6 Xposition Yposition Zposition Zrotation Xrotation Yrotation
        JOINT RightToe
        {
          OFFSET 0 -8.3927 19.1252
          CHANNELS 6 Xposition Yposition Zposition Zrotation Xrotation Yrotation
          End Site
          {
            OFFSET 0 0 0
          }
        }
      }
    }
  }
  JOINT LeftHip
  {
    OFFSET 8.63673 0.00547028 0
    CHANNELS 6 Xposition Yposition Zposition Zrotation Xrotation Yrotation
    JOINT LeftKnee
    {
      OFFSET 0 -44.4932 -2.13963
      CHANNELS 6 Xposition Yposition Zposition Zrotation Xrotation Yrotation
      JOINT LeftAnkle
      {
        OFFSET 0 -43.4407 -3.54051
        CHANNELS 6 Xposition Yposition Zposition Zrotation Xrotation Yrotation
        JOINT LeftToe
        {
          OFFSET 0 -8.39271 19.1252
          CHANNELS 6 Xposition Yposition Zposition Zrotation Xrotation Yrotation
          End Site
          {
            OFFSET 0 0 0
          }
        }
      }
    }
  }
}
MOTION
Frames:	4
Frame Time:	0.0333333
-7.47056 96.1134 52.0542 0.00269494 0.00142658 179.972 -1.77636e-015 10.5691 -1.07959 0.000580704 0.000217112 0.000420887 -8.88178e-016 11.6675 1.08235 0.00116135 0.000434058 0.000841876 -1.77636e-015 10.5876 7.10543e-015 0.00116135 0.000434058 0.000841876 -2.66454e-015 10.5876 -7.10543e-015 0.00116135 0.000434058 0.000841875 -8.88178e-016 14.88 -7.10543e-015 -0.0696772 0.125263 0.0264264 -6.21725e-015 9.61471 2.16553 0.121626 -0.226715 -0.00292141 -3.23953 8.30385 -1.42109e-014 3.87268e-020 -1.21329e-020 -0 -15.1725 -4.76837e-006 1.42109e-014 -8.22202 -29.565 -6.86505 -32.4113 5.4454e-006 3.11526e-006 16.1694 -7.50582 2.25 -26.4919 -7.03839e-006 1.0813 -17.9474 0.878249 -7.28521 3.23953 8.30385 -7.10543e-015 3.87268e-020 -1.21329e-020 -0 15.1725 -4.76837e-006 0 -4.16206 -37.1412 -7.94329 32.4113 1.86605e-006 1.0616e-006 -13.3358 -1.18143 2.33724 26.4919 -3.46624e-007 1.0813 18.1265 -0.644586 -2.30968 -8.63673 0.00547028 7.10543e-015 -4.38968 -3.58452 -0.157141 1.84867e-006 -44.4933 -2.13962 4.58989 3.28422 -0.142659 1.45139e-008 -43.4407 -3.54051 -0.200669 0.276126 0.0010896 1.75116e-007 -8.3927 19.1252 0.0183806 0.0424591 0.0764854 8.63673 0.00547028 0 4.57648 -3.52635 -0.511001 1.61721e-006 -44.4932 -2.13963 -4.9146 3.13086 0.638144 -9.31167e-007 -43.4407 -3.54051 -0.373818 0.269342 0.0200801 -5.33191e-007 -8.39271 19.1252 -0.000534857 -0.179096 0.678924 
-7.42605 96.1353 52.0529 0.0030691 0.0189771 179.883 -1.77636e-015 10.5691 -1.07959 -0.00501506 -0.00183762 -0.00359656 0 11.6675 1.08235 -0.0100299 -0.00367384 -0.00719398 -1.77636e-015 10.5876 0 -0.0100299 -0.00367384 -0.00719397 -2.66454e-015 10.5876 -7.10543e-015 -0.0100299 -0.00367383 -0.00719397 -1.77636e-015 14.88 0 -0.427044 0.585847 0.217952 -7.10543e-015 9.61471 2.16553 0.82597 -0.971431 -0.037166 -3.23953 8.30385 -7.10543e-015 5.26566e-018 0 2.48481e-017 -15.1725 -4.76837e-006 7.10543e-015 -8.09846 -31.1707 -6.26024 -32.4113 5.4454e-006 3.11526e-006 15.6125 -7.24076 0.96008 -26.4919 -7.03839e-006 1.0813 -17.8573 0.798627 -6.8099 3.23953 8.30385 -7.10543e-015 5.26566e-018 0 2.48481e-017 15.1725 -4.76837e-006 0 -4.1148 -37.2891 -7.78238 32.4113 1.86605e-006 1.0616e-006 -13.2693 -1.28231 2.33732 26.4919 -3.46624e-007 1.0813 18.1055 -0.629709 -2.22117 -8.63673 0.00547028 -7.10543e-015 -4.28943 -3.47841 -0.163014 1.84867e-006 -44.4933 -2.13962 4.45117 3.0855 -0.0290605 1.45139e-008 -43.4407 -3.54051 -0.20984 0.382476 0.00108962 1.75116e-007 -8.3927 19.1252 -0.0494767 -0.0498781 0.0452724 8.63673 0.00547028 -7.10543e-015 4.58535 -3.22378 -0.750069 1.61721e-006 -44.4932 -2.13963 -4.94734 2.5529 0.34958 -9.31167e-007 -43.4407 -3.54051 -1.00154 0.867697 0.0582117 -5.33191e-007 -8.39271 19.1252 1.06248 -1.69753 2.31659 
-7.41497 96.1826 52.0254 -0.0275219 0.0523574 179.871 -8.88178e-016 10.5691 -1.07959 -0.0266782 -0.0101672 -0.0196653 -8.88178e-016 11.6675 1.08235 -0.0534298 -0.0203264 -0.0393901 -2.66454e-015 10.5876 0 -0.0534298 -0.0203264 -0.0393901 -1.77636e-015 10.5876 -7.10543e-015 -0.0534298 -0.0203263 -0.0393901 -1.77636e-015 14.8799 0 -0.915172 0.804575 0.556022 -7.10543e-015 9.61471 2.16553 1.89513 -1.13895 -0.135073 -3.23953 8.30385 0 -2.04803e-017 -2.48481e-017 -9.93923e-017 -15.1725 -4.76837e-006 0 -7.89183 -31.3716 -6.1461 -32.4113 5.4454e-006 3.11526e-006 15.5608 -7.35474 0.973855 -26.4919 -7.03839e-006 1.0813 -18.088 0.824989 -6.90888 3.23953 8.30385 0 -2.04803e-017 -2.48481e-017 -9.93923e-017 15.1725 -4.76837e-006 -7.10543e-015 -4.06547 -37.7108 -7.71809 32.4113 1.86605e-006 1.0616e-006 -13.0856 -1.17333 2.33723 26.4919 -3.46624e-007 1.0813 17.9725 -0.632313 -2.26726 -8.63673 0.00547028 0 -4.3487 -3.09609 -0.200928 1.84867e-006 -44.4933 -2.13962 4.51326 2.42063 0.16853 1.45139e-008 -43.4407 -3.54051 -0.0602418 0.643946 0.00108966 1.75116e-007 -8.3927 19.1252 -0.125282 -0.277871 -0.486749 8.63673 0.00547028 0 4.54197 -3.11078 -0.790321 1.61721e-006 -44.4932 -2.13963 -4.85251 2.45392 1.03934 -9.31167e-007 -43.4407 -3.54051 -0.792906 0.81893 0.044852 -5.33191e-007 -8.39271 19.1252 1.07126 -1.29982 0.582476 
-7.42944 96.1842 52.0198 -0.0528966 0.0260788 179.896 -8.88178e-016 10.5691 -1.07959 -0.025635 -0.0123416 -0.0203984 0 11.6675 1.08235 -0.0507271 -0.0246746 -0.0404142 -1.77636e-015 10.5876 -7.10543e-015 -0.0507271 -0.0246746 -0.0404143 -2.66454e-015 10.5876 -1.42109e-014 -0.0507271 -0.0246746 -0.0404142 -2.66454e-015 14.88 0 -1.03667 0.692367 0.551647 -5.32907e-015 9.61475 2.16553 2.03451 -1.06105 -0.202848 -3.23953 8.30385 7.10543e-015 2.28098e-017 2.48481e-017 4.96962e-017 -15.1725 -4.76837e-006 7.10543e-015 -7.99224 -31.368 -6.22031 -32.4113 5.4454e-006 3.11526e-006 15.5562 -7.36003 0.978281 -26.4919 -7.03839e-006 1.0813 -18.0604 0.825916 -6.92456 3.23953 8.30385 -7.10543e-015 2.28098e-017 2.48481e-017 4.96962e-017 15.1725 -4.76837e-006 0 -4.0979 -37.691 -7.7581 32.4113 1.86605e-006 1.0616e-006 -13.1066 -1.14719 2.33721 26.4919 -3.46624e-007 1.0813 17.9918 -0.636369 -2.28867 -8.63673 0.00547028 7.10543e-015 -4.39612 -3.14769 -0.249434 1.84867e-006 -44.4933 -2.13962 4.52198 2.50171 0.0945797 1.45139e-008 -43.4407 -3.54051 -0.0672106 0.606263 0.00108965 1.75116e-007 -8.3927 19.1252 -0.194571 -0.286526 -0.182197 8.63673 0.00547028 0 4.49392 -3.11064 -0.835846 1.61721e-006 -44.4932 -2.13963 -4.81601 2.38696 1.15862 -9.31167e-007 -43.4407 -3.54051 -0.960195 0.929021 0.0554791 -5.33191e-007 -8.39271 19.1252 1.28474 -1.4745 0.351444 
